<?xml version="1.0" encoding="UTF-8"?>
<svg width="290px" height="48px" viewBox="0 0 290 48" version="1.1" xmlns="http://www.w3.org/2000/svg" xmlns:xlink="http://www.w3.org/1999/xlink">
    <!-- Generator: Sketch 58 (84663) - https://sketch.com -->
    <title>v3_button_dark_290x48</title>
    <desc>Created with Sketch.</desc>
    <defs>
        <polygon id="path-1" points="0 0 38.1742939 0 38.1742939 24 0 24"></polygon>
    </defs>
    <g id="Page-1" stroke="none" stroke-width="1" fill="none" fill-rule="evenodd">
        <g id="v3_MC,VISA,AMEX" transform="translate(-1014.000000, -1802.000000)">
            <g id="v3_button_dark_290x48" transform="translate(1014.000000, 1802.000000)">
                <rect id="Rectangle" fill="#000000" x="0" y="0" width="290" height="48" rx="24"></rect>
                <g id="v3_mark_light_M_24px" transform="translate(51.000000, 9.500000)">
                    <g id="UI-icon/SRC/light" transform="translate(0.000000, 2.500000)">
                        <g id="SRC_icon_white">
                            <mask id="mask-2" fill="white">
                                <use xlink:href="#path-1"></use>
                            </mask>
                            <g id="path-1"></g>
                            <path d="M28.7145073,0.549102439 C28.5216293,0.232273171 28.1728976,0.0206634146 27.7748488,0.0206634146 C27.1678244,0.0206634146 26.675678,0.512663415 26.675678,1.11983415 C26.675678,1.43973659 26.8125073,1.72773659 27.0307024,1.92866341 L35.3165561,11.9735415 L27.1227512,21.8275902 L26.2293366,21.8275902 L23.5830439,21.8275902 L31.3265561,12.8174927 C31.3315317,12.8119317 31.3360683,12.8063707 31.3408976,12.8008098 L31.3425073,12.8013951 C31.5582146,12.564322 31.6542146,12.2872976 31.6490927,12.0142244 C31.6542146,11.7412976 31.5582146,11.4642732 31.3425073,11.2272 L31.3408976,11.227639 C31.3360683,11.222078 31.3315317,11.2165171 31.3265561,11.2111024 L22.0798244,0.566517073 C22.0777756,0.564029268 22.0757268,0.561541463 22.0735317,0.559053659 C21.8821171,0.236663415 21.5303122,0.0206634146 21.1283122,0.0206634146 L14.6341171,0.0206634146 C14.0270927,0.0206634146 13.5349463,0.512663415 13.5349463,1.11983415 C13.5349463,1.30407805 13.5601171,1.49563902 13.6608,1.63041951 L22.2669951,12.0550537 L14.9320683,20.8550049 C14.8884585,20.8986146 14.2564098,21.7993463 13.1450927,21.7993463 L4.38494634,21.7993463 C3.19358049,21.7993463 2.20562927,20.869639 2.20562927,19.6346634 L2.20562927,4.38017561 C2.20562927,3.30515122 3.19358049,2.20100488 4.41187317,2.20100488 L9.86177561,2.20100488 C10.5042146,2.20100488 10.9609463,1.76227317 10.9609463,1.11983415 C10.9609463,0.477395122 10.5042146,-0.000117073171 9.86177561,-0.000117073171 L4.35845854,0.0216878049 C1.75138537,0.0216878049 -2.92682927e-05,2.17188293 -2.92682927e-05,4.35778537 L-2.92682927e-05,19.6346634 C-2.92682927e-05,21.9882732 2.07494634,23.9930049 4.35845854,23.9930049 L13.1161171,23.9930049 C13.5577756,23.9930049 13.9618244,23.928322 14.3256293,23.8247122 C14.3775805,23.8099317 14.4288,23.7942732 14.4789951,23.7780293 C15.6864585,23.3867122 16.415239,22.5827122 16.5563122,22.4123707 L24.8111415,12.7918829 C25.2015805,12.3489073 25.2535317,11.7064683 24.8175805,11.2272 L24.8159707,11.227639 C24.8111415,11.222078 24.8066049,11.2165171 24.8017756,11.2111024 L16.9934341,2.20100488 L19.7045561,2.20100488 L20.5979707,2.20100488 L28.7579707,12.0143707 L20.1710927,22.3722732 C20.1683122,22.3753463 20.1735805,22.3842732 20.1857268,22.3981756 C20.1055317,22.5508098 20.0598732,22.7243707 20.0598732,22.908761 C20.0598732,23.5157854 20.5520195,24.0079317 21.1588976,24.0079317 L27.6530927,24.0079317 C28.055239,24.0079317 28.4067512,23.791639 28.5984585,23.4693951 C28.6005073,23.4669073 28.6025561,23.4644195 28.6046049,23.462078 L37.8514829,12.8174927 C37.8563122,12.8119317 37.8608488,12.8063707 37.865678,12.8008098 L37.8672878,12.8013951 C38.3030927,12.3219805 38.2512878,11.6795415 37.8608488,11.2365659 L28.7145073,0.549102439 Z" id="Fill-1" fill="#FFFFFF" fill-rule="nonzero" mask="url(#mask-2)"></path>
                        </g>
                    </g>
                    <g id="UI-Networks/Visa/light" transform="translate(105.000000, 7.000000)" fill="#FFFFFF">
                        <g id="Visa-Brand-Mark-White">
                            <path d="M17.422765,0.364608295 L11.4279263,14.6670046 L7.51686636,14.6670046 L4.56820276,3.25179724 C4.38801843,2.54801843 4.23327189,2.29152074 3.68847926,1.99474654 C2.8002765,1.51142857 1.33124424,1.05990783 0.038156682,0.77797235 L0.12718894,0.362488479 L6.42304147,0.362488479 C7.2243318,0.362488479 7.94718894,0.896682028 8.12949309,1.82092166 L9.6875576,10.0988018 L13.5371429,0.364608295 L17.422765,0.364608295 Z M32.7469124,9.99705069 C32.7617512,6.22165899 27.5258065,6.01391705 27.5618433,4.32866359 C27.5724424,3.8156682 28.0621198,3.27087558 29.1305069,3.13096774 C29.6604608,3.06101382 31.1210138,3.00801843 32.7787097,3.77115207 L33.4273733,0.737695853 C32.5370507,0.413364055 31.3923502,0.103870968 29.9657143,0.103870968 C26.3090323,0.103870968 23.735576,2.04774194 23.7122581,4.83317972 C23.6889401,6.89152074 25.5501382,8.04046083 26.9513364,8.72516129 C28.3928111,9.42682028 28.876129,9.8762212 28.8697696,10.5015668 C28.8612903,11.4618433 27.7208295,11.8836866 26.656682,11.9006452 C24.7954839,11.9303226 23.7164977,11.3982488 22.8558525,10.9976037 L22.1859908,14.1306912 C23.0508756,14.5270968 24.644977,14.8726267 26.300553,14.8895853 C30.1925346,14.8895853 32.7341935,12.9690323 32.7469124,9.99705069 L32.7469124,9.99705069 Z M42.4026728,14.6670046 L45.8240553,14.6670046 L42.837235,0.364608295 L39.6787097,0.364608295 C38.9685714,0.364608295 38.3707834,0.77797235 38.1036866,1.41391705 L32.5540092,14.6670046 L36.4396313,14.6670046 L37.2112442,12.5302304 L41.9575115,12.5302304 L42.4026728,14.6670046 Z M38.2753917,9.59852535 L40.2235023,4.22691244 L41.3448848,9.59852535 L38.2753917,9.59852535 Z M22.7095853,0.364608295 L19.6506912,14.6670046 L15.9516129,14.6670046 L19.0126267,0.364608295 L22.7095853,0.364608295 Z" id="Shape" fill-rule="nonzero"></path>
                        </g>
                    </g>
                    <g id="UI-Networks/AMEX" transform="translate(159.000000, 0.000000)">
                        <g id="Amex-500x500@1x">
                            <rect id="Rectangle" fill="#FFFFFF" fill-rule="nonzero" x="0" y="0" width="29.0500864" height="29.0500864"></rect>
                            <path d="M0,0 L0,29.0500864 L29.0500864,29.0500864 L29.0500864,24.446984 L25.5454258,24.446984 L23.7410669,22.451824 L21.9275862,24.446984 L10.3724495,24.446984 L10.3724495,15.1482837 L6.64294135,15.1482837 L11.2689933,4.67909741 L15.7303894,4.67909741 L17.3229732,8.26567917 L17.3229732,4.67909741 L22.8453365,4.67909741 L23.8041637,7.38174314 L24.7692656,4.67909741 L29.0500864,4.67909741 L29.0500864,0 L0,0 Z M25.6354811,5.84336677 L23.8120072,10.9069711 L22.0002695,5.84336677 L18.5276803,5.84336677 L18.5276803,13.9732077 L20.7227048,13.9732077 L20.7227048,8.28229582 L22.8133814,13.9732077 L24.7643852,13.9732077 L26.8548875,8.27055959 L26.8548875,13.9732077 L29.0500864,13.9732077 L29.0500864,5.84336677 L25.6354811,5.84336677 Z M12.0820471,5.84336677 L8.49314135,13.9732077 L10.9321285,13.9732077 L11.6058581,12.3472163 L15.3454757,12.3472163 L16.0307092,13.9732077 L18.5276803,13.9732077 L14.9391812,5.84336677 L12.0820471,5.84336677 Z M13.475696,7.86414888 L14.5790763,10.5237424 L12.3722575,10.5237424 L13.475696,7.86414888 Z M26.1821456,15.1529317 L23.8013749,17.7545413 L21.4434955,15.1529317 L18.5284937,15.1529317 L22.3610716,19.2179103 L18.5284937,23.2828308 L21.3623296,23.2828308 L23.7548366,20.6579812 L26.1357817,23.2828308 L29.0500864,23.2828308 L25.1950237,19.1946122 L29.0500864,15.1529317 L26.1821456,15.1529317 Z M11.6064391,15.1529317 L11.6064391,23.2828308 L18.5283194,23.2828308 L18.5283194,21.4013148 L13.8248199,21.4013148 L13.8248199,20.1353702 L18.4122352,20.1353702 L18.4122352,18.3002181 L13.8248199,18.3002181 L13.8248199,17.0345058 L18.5283194,17.0345058 L18.5283194,15.1529317 L11.6064391,15.1529317 Z M26.8175872,19.1980401 L29.0500864,21.573117 L29.0500864,16.8427753 L26.8175872,19.1980401 Z" id="500x500" fill="#006FCF" fill-rule="nonzero"></path>
                        </g>
                    </g>
                    <rect id="Pipe" fill="#FFFFFF" x="46" y="2.5" width="1" height="24" rx="0.5"></rect>
                    <g id="UI-Networks/Mastercard" transform="translate(55.000000, 1.500000)">
                        <g id="mc_symbol">
                            <rect id="Rectangle" fill="#FF5F00" fill-rule="nonzero" x="14.8507692" y="2.92705479" width="12.4420513" height="20.3563356"></rect>
                            <path d="M16.1323077,13.1070205 C16.1291837,9.13536008 17.9492954,5.38282453 21.0682051,2.93065068 C15.7696683,-1.24056357 8.16075697,-0.632990144 3.5888095,4.32638469 C-0.983137982,9.28575953 -0.983137982,16.9318774 3.5888095,21.8912523 C8.16075697,26.8506271 15.7696683,27.4582005 21.0682051,23.2869863 C17.9483029,20.8340337 16.1280799,17.0799429 16.1323077,13.1070205 Z" id="Path" fill="#EB001B" fill-rule="nonzero"></path>
                            <polygon id="Path" fill="#F79E1B" fill-rule="nonzero" points="40.5035275 21.2718145 40.5035275 20.8363307 40.6814937 20.8363307 40.6814937 20.76375 40.254375 20.76375 40.254375 20.8363307 40.4323411 20.8363307 40.4323411 21.2718145"></polygon>
                            <polygon id="Path" fill="#F79E1B" fill-rule="nonzero" points="41.3226165 20.76375 41.1802437 20.76375 41.0378708 21.1266532 40.8954979 20.76375 40.753125 20.76375 40.753125 21.2718145 40.8599047 21.2718145 40.8599047 20.872621 40.9782543 21.1992339 41.1090572 21.1992339 41.223527 20.872621 41.223527 21.2718145 41.3226165 21.2718145"></polygon>
                            <path d="M41.9784615,13.1070205 C41.9784615,18.0633731 39.1531255,22.5845832 34.7026814,24.7504755 C30.2522374,26.9163679 24.957904,26.3466916 21.0682051,23.2833904 C24.1857539,20.8291347 26.0060027,17.0770981 26.0060027,13.1052226 C26.0060027,9.13334717 24.1857539,5.38131047 21.0682051,2.92705479 C24.957904,-0.136246427 30.2522374,-0.705922704 34.7026814,1.45996967 C39.1531255,3.62586203 41.9784615,8.14707213 41.9784615,13.1034247 L41.9784615,13.1070205 Z" id="Path" fill="#F79E1B" fill-rule="nonzero"></path>
                        </g>
                    </g>
                </g>
            </g>
        </g>
    </g>
</svg>